<?xml version="1.0" encoding="UTF-8" standalone="no"?>
<!DOCTYPE svg PUBLIC "-//W3C//DTD SVG 1.1//EN"
 "http://www.w3.org/Graphics/SVG/1.1/DTD/svg11.dtd">
<!-- Generated by graphviz version 2.38.0 (20140413.2041)
 -->
<!-- Title: %3 Pages: 1 -->
<svg width="368pt" height="1610pt"
 viewBox="0.00 0.00 368.00 1610.00" xmlns="http://www.w3.org/2000/svg" xmlns:xlink="http://www.w3.org/1999/xlink">
<g id="graph0" class="graph" transform="scale(1 1) rotate(0) translate(4 1606)">
<title>%3</title>
<polygon fill="white" stroke="none" points="-4,4 -4,-1606 364,-1606 364,4 -4,4"/>
<!-- 1 -->
<g id="node1" class="node"><title>1</title>
<ellipse fill="none" stroke="black" cx="204" cy="-1497" rx="27" ry="18"/>
<text text-anchor="middle" x="204" y="-1493.3" font-family="Times New Roman,serif" font-size="14.00">1</text>
</g>
<!-- 0 -->
<g id="node2" class="node"><title>0</title>
<ellipse fill="none" stroke="black" cx="204" cy="-1584" rx="27" ry="18"/>
<text text-anchor="middle" x="204" y="-1580.3" font-family="Times New Roman,serif" font-size="14.00">0</text>
</g>
<!-- 1&#45;&gt;0 -->
<g id="edge1" class="edge"><title>1&#45;&gt;0</title>
<path fill="none" stroke="black" d="M204,-1515.2C204,-1526.84 204,-1542.45 204,-1555.76"/>
<polygon fill="black" stroke="black" points="200.5,-1555.82 204,-1565.82 207.5,-1555.82 200.5,-1555.82"/>
<text text-anchor="middle" x="225.5" y="-1536.8" font-family="Times New Roman,serif" font-size="14.00">5af3d...</text>
</g>
<!-- 2 -->
<g id="node3" class="node"><title>2</title>
<ellipse fill="none" stroke="black" cx="98" cy="-1410" rx="27" ry="18"/>
<text text-anchor="middle" x="98" y="-1406.3" font-family="Times New Roman,serif" font-size="14.00">2</text>
</g>
<!-- 2&#45;&gt;1 -->
<g id="edge2" class="edge"><title>2&#45;&gt;1</title>
<path fill="none" stroke="black" d="M102.805,-1428.17C106.539,-1438.8 112.678,-1452.08 122,-1461 135.059,-1473.5 153.264,-1481.87 169.205,-1487.29"/>
<polygon fill="black" stroke="black" points="168.182,-1490.64 178.771,-1490.29 170.277,-1483.96 168.182,-1490.64"/>
<text text-anchor="middle" x="144.5" y="-1449.8" font-family="Times New Roman,serif" font-size="14.00">7300e...</text>
</g>
<!-- 3 -->
<g id="node4" class="node"><title>3</title>
<ellipse fill="none" stroke="black" cx="98" cy="-1323" rx="27" ry="18"/>
<text text-anchor="middle" x="98" y="-1319.3" font-family="Times New Roman,serif" font-size="14.00">3</text>
</g>
<!-- 3&#45;&gt;2 -->
<g id="edge3" class="edge"><title>3&#45;&gt;2</title>
<path fill="none" stroke="black" d="M98,-1341.2C98,-1352.84 98,-1368.45 98,-1381.76"/>
<polygon fill="black" stroke="black" points="94.5001,-1381.82 98,-1391.82 101.5,-1381.82 94.5001,-1381.82"/>
<text text-anchor="middle" x="119.5" y="-1362.8" font-family="Times New Roman,serif" font-size="14.00">6f532...</text>
</g>
<!-- 4 -->
<g id="node5" class="node"><title>4</title>
<ellipse fill="none" stroke="black" cx="170" cy="-1410" rx="27" ry="18"/>
<text text-anchor="middle" x="170" y="-1406.3" font-family="Times New Roman,serif" font-size="14.00">4</text>
</g>
<!-- 4&#45;&gt;1 -->
<g id="edge4" class="edge"><title>4&#45;&gt;1</title>
<path fill="none" stroke="black" d="M168.789,-1428.28C168.719,-1438.21 169.719,-1450.71 174,-1461 175.935,-1465.65 178.731,-1470.13 181.849,-1474.24"/>
<polygon fill="black" stroke="black" points="179.384,-1476.75 188.527,-1482.1 184.719,-1472.21 179.384,-1476.75"/>
<text text-anchor="middle" x="195.5" y="-1449.8" font-family="Times New Roman,serif" font-size="14.00">c492f...</text>
</g>
<!-- 5 -->
<g id="node6" class="node"><title>5</title>
<ellipse fill="none" stroke="black" cx="242" cy="-1410" rx="27" ry="18"/>
<text text-anchor="middle" x="242" y="-1406.3" font-family="Times New Roman,serif" font-size="14.00">5</text>
</g>
<!-- 5&#45;&gt;1 -->
<g id="edge5" class="edge"><title>5&#45;&gt;1</title>
<path fill="none" stroke="black" d="M234.673,-1427.39C229.259,-1439.5 221.779,-1456.23 215.561,-1470.14"/>
<polygon fill="black" stroke="black" points="212.19,-1469.1 211.304,-1479.66 218.581,-1471.96 212.19,-1469.1"/>
<text text-anchor="middle" x="248.5" y="-1449.8" font-family="Times New Roman,serif" font-size="14.00">5ac98...</text>
</g>
<!-- 6 -->
<g id="node7" class="node"><title>6</title>
<ellipse fill="none" stroke="black" cx="314" cy="-1410" rx="27" ry="18"/>
<text text-anchor="middle" x="314" y="-1406.3" font-family="Times New Roman,serif" font-size="14.00">6</text>
</g>
<!-- 6&#45;&gt;1 -->
<g id="edge6" class="edge"><title>6&#45;&gt;1</title>
<path fill="none" stroke="black" d="M304.291,-1426.96C297.195,-1437.63 286.783,-1451.41 275,-1461 263.619,-1470.26 249.379,-1477.89 236.646,-1483.63"/>
<polygon fill="black" stroke="black" points="235.085,-1480.49 227.275,-1487.65 237.845,-1486.92 235.085,-1480.49"/>
<text text-anchor="middle" x="312.5" y="-1449.8" font-family="Times New Roman,serif" font-size="14.00">8ecad...</text>
</g>
<!-- 7 -->
<g id="node8" class="node"><title>7</title>
<ellipse fill="none" stroke="black" cx="314" cy="-1323" rx="27" ry="18"/>
<text text-anchor="middle" x="314" y="-1319.3" font-family="Times New Roman,serif" font-size="14.00">7</text>
</g>
<!-- 7&#45;&gt;6 -->
<g id="edge7" class="edge"><title>7&#45;&gt;6</title>
<path fill="none" stroke="black" d="M314,-1341.2C314,-1352.84 314,-1368.45 314,-1381.76"/>
<polygon fill="black" stroke="black" points="310.5,-1381.82 314,-1391.82 317.5,-1381.82 310.5,-1381.82"/>
<text text-anchor="middle" x="336.5" y="-1362.8" font-family="Times New Roman,serif" font-size="14.00">809e2...</text>
</g>
<!-- 8 -->
<g id="node9" class="node"><title>8</title>
<ellipse fill="none" stroke="black" cx="242" cy="-1323" rx="27" ry="18"/>
<text text-anchor="middle" x="242" y="-1319.3" font-family="Times New Roman,serif" font-size="14.00">8</text>
</g>
<!-- 8&#45;&gt;5 -->
<g id="edge8" class="edge"><title>8&#45;&gt;5</title>
<path fill="none" stroke="black" d="M242,-1341.2C242,-1352.84 242,-1368.45 242,-1381.76"/>
<polygon fill="black" stroke="black" points="238.5,-1381.82 242,-1391.82 245.5,-1381.82 238.5,-1381.82"/>
<text text-anchor="middle" x="264.5" y="-1362.8" font-family="Times New Roman,serif" font-size="14.00">8896e...</text>
</g>
<!-- 9 -->
<g id="node10" class="node"><title>9</title>
<ellipse fill="none" stroke="black" cx="62" cy="-1236" rx="27" ry="18"/>
<text text-anchor="middle" x="62" y="-1232.3" font-family="Times New Roman,serif" font-size="14.00">9</text>
</g>
<!-- 9&#45;&gt;3 -->
<g id="edge9" class="edge"><title>9&#45;&gt;3</title>
<path fill="none" stroke="black" d="M60.6658,-1254.33C60.5544,-1264.28 61.5544,-1276.78 66,-1287 68.121,-1291.88 71.209,-1296.52 74.6409,-1300.74"/>
<polygon fill="black" stroke="black" points="72.181,-1303.24 81.5006,-1308.28 77.3577,-1298.52 72.181,-1303.24"/>
<text text-anchor="middle" x="89" y="-1275.8" font-family="Times New Roman,serif" font-size="14.00">99cbc...</text>
</g>
<!-- 10 -->
<g id="node11" class="node"><title>10</title>
<ellipse fill="none" stroke="black" cx="62" cy="-1149" rx="27" ry="18"/>
<text text-anchor="middle" x="62" y="-1145.3" font-family="Times New Roman,serif" font-size="14.00">10</text>
</g>
<!-- 10&#45;&gt;9 -->
<g id="edge10" class="edge"><title>10&#45;&gt;9</title>
<path fill="none" stroke="black" d="M62,-1167.2C62,-1178.84 62,-1194.45 62,-1207.76"/>
<polygon fill="black" stroke="black" points="58.5001,-1207.82 62,-1217.82 65.5001,-1207.82 58.5001,-1207.82"/>
<text text-anchor="middle" x="84" y="-1188.8" font-family="Times New Roman,serif" font-size="14.00">ae465...</text>
</g>
<!-- 11 -->
<g id="node12" class="node"><title>11</title>
<ellipse fill="none" stroke="black" cx="134" cy="-1236" rx="27" ry="18"/>
<text text-anchor="middle" x="134" y="-1232.3" font-family="Times New Roman,serif" font-size="14.00">11</text>
</g>
<!-- 11&#45;&gt;3 -->
<g id="edge11" class="edge"><title>11&#45;&gt;3</title>
<path fill="none" stroke="black" d="M126.888,-1253.79C121.776,-1265.86 114.788,-1282.36 108.965,-1296.11"/>
<polygon fill="black" stroke="black" points="105.652,-1294.96 104.975,-1305.53 112.098,-1297.69 105.652,-1294.96"/>
<text text-anchor="middle" x="142" y="-1275.8" font-family="Times New Roman,serif" font-size="14.00">ab4cd...</text>
</g>
<!-- 12 -->
<g id="node13" class="node"><title>12</title>
<ellipse fill="none" stroke="black" cx="314" cy="-1236" rx="27" ry="18"/>
<text text-anchor="middle" x="314" y="-1232.3" font-family="Times New Roman,serif" font-size="14.00">12</text>
</g>
<!-- 12&#45;&gt;7 -->
<g id="edge12" class="edge"><title>12&#45;&gt;7</title>
<path fill="none" stroke="black" d="M314,-1254.2C314,-1265.84 314,-1281.45 314,-1294.76"/>
<polygon fill="black" stroke="black" points="310.5,-1294.82 314,-1304.82 317.5,-1294.82 310.5,-1294.82"/>
<text text-anchor="middle" x="337" y="-1275.8" font-family="Times New Roman,serif" font-size="14.00">8cd06...</text>
</g>
<!-- 13 -->
<g id="node14" class="node"><title>13</title>
<ellipse fill="none" stroke="black" cx="62" cy="-1062" rx="27" ry="18"/>
<text text-anchor="middle" x="62" y="-1058.3" font-family="Times New Roman,serif" font-size="14.00">13</text>
</g>
<!-- 13&#45;&gt;10 -->
<g id="edge13" class="edge"><title>13&#45;&gt;10</title>
<path fill="none" stroke="black" d="M62,-1080.2C62,-1091.84 62,-1107.45 62,-1120.76"/>
<polygon fill="black" stroke="black" points="58.5001,-1120.82 62,-1130.82 65.5001,-1120.82 58.5001,-1120.82"/>
<text text-anchor="middle" x="85" y="-1101.8" font-family="Times New Roman,serif" font-size="14.00">7288d...</text>
</g>
<!-- 14 -->
<g id="node15" class="node"><title>14</title>
<ellipse fill="none" stroke="black" cx="314" cy="-1149" rx="27" ry="18"/>
<text text-anchor="middle" x="314" y="-1145.3" font-family="Times New Roman,serif" font-size="14.00">14</text>
</g>
<!-- 14&#45;&gt;12 -->
<g id="edge14" class="edge"><title>14&#45;&gt;12</title>
<path fill="none" stroke="black" d="M314,-1167.2C314,-1178.84 314,-1194.45 314,-1207.76"/>
<polygon fill="black" stroke="black" points="310.5,-1207.82 314,-1217.82 317.5,-1207.82 310.5,-1207.82"/>
<text text-anchor="middle" x="335.5" y="-1188.8" font-family="Times New Roman,serif" font-size="14.00">a68f2...</text>
</g>
<!-- 15 -->
<g id="node16" class="node"><title>15</title>
<ellipse fill="none" stroke="black" cx="27" cy="-975" rx="27" ry="18"/>
<text text-anchor="middle" x="27" y="-971.3" font-family="Times New Roman,serif" font-size="14.00">15</text>
</g>
<!-- 15&#45;&gt;13 -->
<g id="edge15" class="edge"><title>15&#45;&gt;13</title>
<path fill="none" stroke="black" d="M25.7264,-993.308C25.6352,-1003.24 26.6352,-1015.74 31,-1026 33.0531,-1030.82 36.0438,-1035.44 39.3681,-1039.65"/>
<polygon fill="black" stroke="black" points="36.7742,-1042 46.0134,-1047.19 42.0244,-1037.37 36.7742,-1042"/>
<text text-anchor="middle" x="53.5" y="-1014.8" font-family="Times New Roman,serif" font-size="14.00">0613a...</text>
</g>
<!-- 16 -->
<g id="node17" class="node"><title>16</title>
<ellipse fill="none" stroke="black" cx="314" cy="-1062" rx="27" ry="18"/>
<text text-anchor="middle" x="314" y="-1058.3" font-family="Times New Roman,serif" font-size="14.00">16</text>
</g>
<!-- 16&#45;&gt;14 -->
<g id="edge16" class="edge"><title>16&#45;&gt;14</title>
<path fill="none" stroke="black" d="M314,-1080.2C314,-1091.84 314,-1107.45 314,-1120.76"/>
<polygon fill="black" stroke="black" points="310.5,-1120.82 314,-1130.82 317.5,-1120.82 310.5,-1120.82"/>
<text text-anchor="middle" x="336" y="-1101.8" font-family="Times New Roman,serif" font-size="14.00">b62f1...</text>
</g>
<!-- 17 -->
<g id="node18" class="node"><title>17</title>
<ellipse fill="none" stroke="black" cx="99" cy="-975" rx="27" ry="18"/>
<text text-anchor="middle" x="99" y="-971.3" font-family="Times New Roman,serif" font-size="14.00">17</text>
</g>
<!-- 17&#45;&gt;13 -->
<g id="edge17" class="edge"><title>17&#45;&gt;13</title>
<path fill="none" stroke="black" d="M91.866,-992.389C86.6276,-1004.42 79.4042,-1021.02 73.3734,-1034.87"/>
<polygon fill="black" stroke="black" points="70.0204,-1033.81 69.2383,-1044.37 76.4387,-1036.6 70.0204,-1033.81"/>
<text text-anchor="middle" x="106.5" y="-1014.8" font-family="Times New Roman,serif" font-size="14.00">6d4b1...</text>
</g>
<!-- 18 -->
<g id="node19" class="node"><title>18</title>
<ellipse fill="none" stroke="black" cx="99" cy="-888" rx="27" ry="18"/>
<text text-anchor="middle" x="99" y="-884.3" font-family="Times New Roman,serif" font-size="14.00">18</text>
</g>
<!-- 18&#45;&gt;17 -->
<g id="edge18" class="edge"><title>18&#45;&gt;17</title>
<path fill="none" stroke="black" d="M99,-906.201C99,-917.837 99,-933.452 99,-946.763"/>
<polygon fill="black" stroke="black" points="95.5001,-946.825 99,-956.825 102.5,-946.825 95.5001,-946.825"/>
<text text-anchor="middle" x="121.5" y="-927.8" font-family="Times New Roman,serif" font-size="14.00">e384c...</text>
</g>
<!-- 19 -->
<g id="node20" class="node"><title>19</title>
<ellipse fill="none" stroke="black" cx="27" cy="-888" rx="27" ry="18"/>
<text text-anchor="middle" x="27" y="-884.3" font-family="Times New Roman,serif" font-size="14.00">19</text>
</g>
<!-- 19&#45;&gt;15 -->
<g id="edge19" class="edge"><title>19&#45;&gt;15</title>
<path fill="none" stroke="black" d="M27,-906.201C27,-917.837 27,-933.452 27,-946.763"/>
<polygon fill="black" stroke="black" points="23.5001,-946.825 27,-956.825 30.5001,-946.825 23.5001,-946.825"/>
<text text-anchor="middle" x="50" y="-927.8" font-family="Times New Roman,serif" font-size="14.00">e40cb...</text>
</g>
<!-- 20 -->
<g id="node21" class="node"><title>20</title>
<ellipse fill="none" stroke="black" cx="99" cy="-801" rx="27" ry="18"/>
<text text-anchor="middle" x="99" y="-797.3" font-family="Times New Roman,serif" font-size="14.00">20</text>
</g>
<!-- 20&#45;&gt;18 -->
<g id="edge20" class="edge"><title>20&#45;&gt;18</title>
<path fill="none" stroke="black" d="M99,-819.201C99,-830.837 99,-846.452 99,-859.763"/>
<polygon fill="black" stroke="black" points="95.5001,-859.825 99,-869.825 102.5,-859.825 95.5001,-859.825"/>
<text text-anchor="middle" x="122" y="-840.8" font-family="Times New Roman,serif" font-size="14.00">75406...</text>
</g>
<!-- 21 -->
<g id="node22" class="node"><title>21</title>
<ellipse fill="none" stroke="black" cx="99" cy="-714" rx="27" ry="18"/>
<text text-anchor="middle" x="99" y="-710.3" font-family="Times New Roman,serif" font-size="14.00">21</text>
</g>
<!-- 21&#45;&gt;20 -->
<g id="edge21" class="edge"><title>21&#45;&gt;20</title>
<path fill="none" stroke="black" d="M99,-732.201C99,-743.837 99,-759.452 99,-772.763"/>
<polygon fill="black" stroke="black" points="95.5001,-772.825 99,-782.825 102.5,-772.825 95.5001,-772.825"/>
<text text-anchor="middle" x="122" y="-753.8" font-family="Times New Roman,serif" font-size="14.00">55899...</text>
</g>
<!-- 22 -->
<g id="node23" class="node"><title>22</title>
<ellipse fill="none" stroke="black" cx="99" cy="-627" rx="27" ry="18"/>
<text text-anchor="middle" x="99" y="-623.3" font-family="Times New Roman,serif" font-size="14.00">22</text>
</g>
<!-- 22&#45;&gt;21 -->
<g id="edge22" class="edge"><title>22&#45;&gt;21</title>
<path fill="none" stroke="black" d="M99,-645.201C99,-656.837 99,-672.452 99,-685.763"/>
<polygon fill="black" stroke="black" points="95.5001,-685.825 99,-695.825 102.5,-685.825 95.5001,-685.825"/>
<text text-anchor="middle" x="122.5" y="-666.8" font-family="Times New Roman,serif" font-size="14.00">3d32b...</text>
</g>
<!-- 23 -->
<g id="node24" class="node"><title>23</title>
<ellipse fill="none" stroke="black" cx="99" cy="-540" rx="27" ry="18"/>
<text text-anchor="middle" x="99" y="-536.3" font-family="Times New Roman,serif" font-size="14.00">23</text>
</g>
<!-- 23&#45;&gt;22 -->
<g id="edge23" class="edge"><title>23&#45;&gt;22</title>
<path fill="none" stroke="black" d="M99,-558.201C99,-569.837 99,-585.452 99,-598.763"/>
<polygon fill="black" stroke="black" points="95.5001,-598.825 99,-608.825 102.5,-598.825 95.5001,-598.825"/>
<text text-anchor="middle" x="122" y="-579.8" font-family="Times New Roman,serif" font-size="14.00">471de...</text>
</g>
<!-- 24 -->
<g id="node25" class="node"><title>24</title>
<ellipse fill="none" stroke="black" cx="99" cy="-453" rx="27" ry="18"/>
<text text-anchor="middle" x="99" y="-449.3" font-family="Times New Roman,serif" font-size="14.00">24</text>
</g>
<!-- 24&#45;&gt;23 -->
<g id="edge24" class="edge"><title>24&#45;&gt;23</title>
<path fill="none" stroke="black" d="M99,-471.201C99,-482.837 99,-498.452 99,-511.763"/>
<polygon fill="black" stroke="black" points="95.5001,-511.825 99,-521.825 102.5,-511.825 95.5001,-511.825"/>
<text text-anchor="middle" x="122" y="-492.8" font-family="Times New Roman,serif" font-size="14.00">1ad62...</text>
</g>
<!-- 25 -->
<g id="node26" class="node"><title>25</title>
<ellipse fill="none" stroke="black" cx="99" cy="-366" rx="27" ry="18"/>
<text text-anchor="middle" x="99" y="-362.3" font-family="Times New Roman,serif" font-size="14.00">25</text>
</g>
<!-- 25&#45;&gt;24 -->
<g id="edge25" class="edge"><title>25&#45;&gt;24</title>
<path fill="none" stroke="black" d="M99,-384.201C99,-395.837 99,-411.452 99,-424.763"/>
<polygon fill="black" stroke="black" points="95.5001,-424.825 99,-434.825 102.5,-424.825 95.5001,-424.825"/>
<text text-anchor="middle" x="121" y="-405.8" font-family="Times New Roman,serif" font-size="14.00">ea391...</text>
</g>
<!-- 26 -->
<g id="node27" class="node"><title>26</title>
<ellipse fill="none" stroke="black" cx="99" cy="-279" rx="27" ry="18"/>
<text text-anchor="middle" x="99" y="-275.3" font-family="Times New Roman,serif" font-size="14.00">26</text>
</g>
<!-- 26&#45;&gt;25 -->
<g id="edge26" class="edge"><title>26&#45;&gt;25</title>
<path fill="none" stroke="black" d="M99,-297.201C99,-308.837 99,-324.452 99,-337.763"/>
<polygon fill="black" stroke="black" points="95.5001,-337.825 99,-347.825 102.5,-337.825 95.5001,-337.825"/>
<text text-anchor="middle" x="121" y="-318.8" font-family="Times New Roman,serif" font-size="14.00">e52a8...</text>
</g>
<!-- 27 -->
<g id="node28" class="node"><title>27</title>
<ellipse fill="none" stroke="black" cx="62" cy="-192" rx="27" ry="18"/>
<text text-anchor="middle" x="62" y="-188.3" font-family="Times New Roman,serif" font-size="14.00">27</text>
</g>
<!-- 27&#45;&gt;26 -->
<g id="edge27" class="edge"><title>27&#45;&gt;26</title>
<path fill="none" stroke="black" d="M60.1309,-210.362C59.7578,-220.316 60.5078,-232.816 65,-243 67.3077,-248.232 70.7622,-253.138 74.5984,-257.527"/>
<polygon fill="black" stroke="black" points="72.2515,-260.132 81.7503,-264.825 77.2513,-255.233 72.2515,-260.132"/>
<text text-anchor="middle" x="88" y="-231.8" font-family="Times New Roman,serif" font-size="14.00">25466...</text>
</g>
<!-- 28 -->
<g id="node29" class="node"><title>28</title>
<ellipse fill="none" stroke="black" cx="134" cy="-192" rx="27" ry="18"/>
<text text-anchor="middle" x="134" y="-188.3" font-family="Times New Roman,serif" font-size="14.00">28</text>
</g>
<!-- 28&#45;&gt;26 -->
<g id="edge28" class="edge"><title>28&#45;&gt;26</title>
<path fill="none" stroke="black" d="M127.085,-209.793C122.116,-221.862 115.322,-238.362 109.661,-252.109"/>
<polygon fill="black" stroke="black" points="106.353,-250.951 105.781,-261.531 112.825,-253.617 106.353,-250.951"/>
<text text-anchor="middle" x="142" y="-231.8" font-family="Times New Roman,serif" font-size="14.00">00b3e...</text>
</g>
<!-- 29 -->
<g id="node30" class="node"><title>29</title>
<ellipse fill="none" stroke="black" cx="62" cy="-105" rx="27" ry="18"/>
<text text-anchor="middle" x="62" y="-101.3" font-family="Times New Roman,serif" font-size="14.00">29</text>
</g>
<!-- 29&#45;&gt;27 -->
<g id="edge29" class="edge"><title>29&#45;&gt;27</title>
<path fill="none" stroke="black" d="M62,-123.201C62,-134.837 62,-150.452 62,-163.763"/>
<polygon fill="black" stroke="black" points="58.5001,-163.825 62,-173.825 65.5001,-163.825 58.5001,-163.825"/>
<text text-anchor="middle" x="84.5" y="-144.8" font-family="Times New Roman,serif" font-size="14.00">3295a...</text>
</g>
<!-- 30 -->
<g id="node31" class="node"><title>30</title>
<ellipse fill="none" stroke="black" cx="62" cy="-18" rx="27" ry="18"/>
<text text-anchor="middle" x="62" y="-14.3" font-family="Times New Roman,serif" font-size="14.00">30</text>
</g>
<!-- 30&#45;&gt;29 -->
<g id="edge30" class="edge"><title>30&#45;&gt;29</title>
<path fill="none" stroke="black" d="M62,-36.201C62,-47.8374 62,-63.4521 62,-76.7632"/>
<polygon fill="black" stroke="black" points="58.5001,-76.8245 62,-86.8246 65.5001,-76.8246 58.5001,-76.8245"/>
<text text-anchor="middle" x="85.5" y="-57.8" font-family="Times New Roman,serif" font-size="14.00">ccd0b...</text>
</g>
</g>
</svg>
