<?xml version="1.0" encoding="UTF-8" standalone="no"?>
<!DOCTYPE svg PUBLIC "-//W3C//DTD SVG 1.1//EN"
 "http://www.w3.org/Graphics/SVG/1.1/DTD/svg11.dtd">
<!-- Generated by graphviz version 2.38.0 (20140413.2041)
 -->
<!-- Title: %3 Pages: 1 -->
<svg width="986pt" height="127pt"
 viewBox="0.00 0.00 986.00 127.00" xmlns="http://www.w3.org/2000/svg" xmlns:xlink="http://www.w3.org/1999/xlink">
<g id="graph0" class="graph" transform="scale(1 1) rotate(0) translate(4 123)">
<title>%3</title>
<polygon fill="white" stroke="none" points="-4,4 -4,-123 982,-123 982,4 -4,4"/>
<!-- 1 -->
<g id="node1" class="node"><title>1</title>
<ellipse fill="none" stroke="black" cx="157" cy="-47" rx="27" ry="18"/>
<text text-anchor="middle" x="157" y="-43.3" font-family="Times New Roman,serif" font-size="14.00">1</text>
</g>
<!-- 0 -->
<g id="node2" class="node"><title>0</title>
<ellipse fill="none" stroke="black" cx="27" cy="-78" rx="27" ry="18"/>
<text text-anchor="middle" x="27" y="-74.3" font-family="Times New Roman,serif" font-size="14.00">0</text>
</g>
<!-- 1&#45;&gt;0 -->
<g id="edge1" class="edge"><title>1&#45;&gt;0</title>
<path fill="none" stroke="black" d="M131.356,-52.7907C114.606,-56.7454 91.9521,-62.1309 72,-67 68.9617,-67.7415 65.8071,-68.5176 62.6453,-69.2999"/>
<polygon fill="black" stroke="black" points="61.5152,-65.9743 52.6555,-71.7843 63.2046,-72.7673 61.5152,-65.9743"/>
<text text-anchor="middle" x="92" y="-70.8" font-family="Times New Roman,serif" font-size="14.00">hash#1</text>
</g>
<!-- 2 -->
<g id="node3" class="node"><title>2</title>
<ellipse fill="none" stroke="black" cx="157" cy="-101" rx="27" ry="18"/>
<text text-anchor="middle" x="157" y="-97.3" font-family="Times New Roman,serif" font-size="14.00">2</text>
</g>
<!-- 2&#45;&gt;0 -->
<g id="edge2" class="edge"><title>2&#45;&gt;0</title>
<path fill="none" stroke="black" d="M130.711,-96.4559C111.427,-92.9908 84.6311,-88.1759 63.2441,-84.3329"/>
<polygon fill="black" stroke="black" points="63.6975,-80.8584 53.2361,-82.5346 62.4595,-87.7481 63.6975,-80.8584"/>
<text text-anchor="middle" x="92" y="-95.8" font-family="Times New Roman,serif" font-size="14.00">hash#2</text>
</g>
<!-- 3 -->
<g id="node4" class="node"><title>3</title>
<ellipse fill="none" stroke="black" cx="287" cy="-72" rx="27" ry="18"/>
<text text-anchor="middle" x="287" y="-68.3" font-family="Times New Roman,serif" font-size="14.00">3</text>
</g>
<!-- 3&#45;&gt;1 -->
<g id="edge3" class="edge"><title>3&#45;&gt;1</title>
<path fill="none" stroke="black" d="M260.711,-67.0608C241.427,-63.2943 214.631,-58.0608 193.244,-53.8836"/>
<polygon fill="black" stroke="black" points="193.722,-50.4108 183.236,-51.9289 192.38,-57.281 193.722,-50.4108"/>
<text text-anchor="middle" x="222" y="-66.8" font-family="Times New Roman,serif" font-size="14.00">hash#3</text>
</g>
<!-- 4 -->
<g id="node5" class="node"><title>4</title>
<ellipse fill="none" stroke="black" cx="417" cy="-72" rx="27" ry="18"/>
<text text-anchor="middle" x="417" y="-68.3" font-family="Times New Roman,serif" font-size="14.00">4</text>
</g>
<!-- 4&#45;&gt;3 -->
<g id="edge4" class="edge"><title>4&#45;&gt;3</title>
<path fill="none" stroke="black" d="M389.788,-72C370.892,-72 345.149,-72 324.28,-72"/>
<polygon fill="black" stroke="black" points="324.177,-68.5001 314.177,-72 324.176,-75.5001 324.177,-68.5001"/>
<text text-anchor="middle" x="352" y="-75.8" font-family="Times New Roman,serif" font-size="14.00">hash#4</text>
</g>
<!-- 5 -->
<g id="node6" class="node"><title>5</title>
<ellipse fill="none" stroke="black" cx="287" cy="-18" rx="27" ry="18"/>
<text text-anchor="middle" x="287" y="-14.3" font-family="Times New Roman,serif" font-size="14.00">5</text>
</g>
<!-- 5&#45;&gt;1 -->
<g id="edge5" class="edge"><title>5&#45;&gt;1</title>
<path fill="none" stroke="black" d="M260.957,-23.1347C244.231,-26.6211 221.758,-31.4146 202,-36 198.954,-36.707 195.793,-37.4594 192.628,-38.2261"/>
<polygon fill="black" stroke="black" points="191.506,-34.8976 182.632,-40.6857 193.179,-41.6949 191.506,-34.8976"/>
<text text-anchor="middle" x="222" y="-39.8" font-family="Times New Roman,serif" font-size="14.00">hash#5</text>
</g>
<!-- 6 -->
<g id="node7" class="node"><title>6</title>
<ellipse fill="none" stroke="black" cx="547" cy="-72" rx="27" ry="18"/>
<text text-anchor="middle" x="547" y="-68.3" font-family="Times New Roman,serif" font-size="14.00">6</text>
</g>
<!-- 6&#45;&gt;4 -->
<g id="edge6" class="edge"><title>6&#45;&gt;4</title>
<path fill="none" stroke="black" d="M519.788,-72C500.892,-72 475.149,-72 454.28,-72"/>
<polygon fill="black" stroke="black" points="454.177,-68.5001 444.177,-72 454.176,-75.5001 454.177,-68.5001"/>
<text text-anchor="middle" x="482" y="-75.8" font-family="Times New Roman,serif" font-size="14.00">hash#6</text>
</g>
<!-- 7 -->
<g id="node8" class="node"><title>7</title>
<ellipse fill="none" stroke="black" cx="417" cy="-18" rx="27" ry="18"/>
<text text-anchor="middle" x="417" y="-14.3" font-family="Times New Roman,serif" font-size="14.00">7</text>
</g>
<!-- 7&#45;&gt;5 -->
<g id="edge7" class="edge"><title>7&#45;&gt;5</title>
<path fill="none" stroke="black" d="M389.788,-18C370.892,-18 345.149,-18 324.28,-18"/>
<polygon fill="black" stroke="black" points="324.177,-14.5001 314.177,-18 324.176,-21.5001 324.177,-14.5001"/>
<text text-anchor="middle" x="352" y="-21.8" font-family="Times New Roman,serif" font-size="14.00">hash#7</text>
</g>
<!-- 8 -->
<g id="node9" class="node"><title>8</title>
<ellipse fill="none" stroke="black" cx="547" cy="-18" rx="27" ry="18"/>
<text text-anchor="middle" x="547" y="-14.3" font-family="Times New Roman,serif" font-size="14.00">8</text>
</g>
<!-- 8&#45;&gt;7 -->
<g id="edge8" class="edge"><title>8&#45;&gt;7</title>
<path fill="none" stroke="black" d="M519.788,-18C500.892,-18 475.149,-18 454.28,-18"/>
<polygon fill="black" stroke="black" points="454.177,-14.5001 444.177,-18 454.176,-21.5001 454.177,-14.5001"/>
<text text-anchor="middle" x="482" y="-21.8" font-family="Times New Roman,serif" font-size="14.00">hash#8</text>
</g>
<!-- 9 -->
<g id="node10" class="node"><title>9</title>
<ellipse fill="none" stroke="black" cx="677" cy="-18" rx="27" ry="18"/>
<text text-anchor="middle" x="677" y="-14.3" font-family="Times New Roman,serif" font-size="14.00">9</text>
</g>
<!-- 9&#45;&gt;8 -->
<g id="edge9" class="edge"><title>9&#45;&gt;8</title>
<path fill="none" stroke="black" d="M649.788,-18C630.892,-18 605.149,-18 584.28,-18"/>
<polygon fill="black" stroke="black" points="584.177,-14.5001 574.177,-18 584.176,-21.5001 584.177,-14.5001"/>
<text text-anchor="middle" x="612" y="-21.8" font-family="Times New Roman,serif" font-size="14.00">hash#9</text>
</g>
<!-- 10 -->
<g id="node11" class="node"><title>10</title>
<ellipse fill="none" stroke="black" cx="814" cy="-18" rx="27" ry="18"/>
<text text-anchor="middle" x="814" y="-14.3" font-family="Times New Roman,serif" font-size="14.00">10</text>
</g>
<!-- 10&#45;&gt;9 -->
<g id="edge10" class="edge"><title>10&#45;&gt;9</title>
<path fill="none" stroke="black" d="M786.971,-18C766.373,-18 737.364,-18 714.455,-18"/>
<polygon fill="black" stroke="black" points="714.41,-14.5001 704.41,-18 714.41,-21.5001 714.41,-14.5001"/>
<text text-anchor="middle" x="745.5" y="-21.8" font-family="Times New Roman,serif" font-size="14.00">hash#10</text>
</g>
<!-- 11 -->
<g id="node12" class="node"><title>11</title>
<ellipse fill="none" stroke="black" cx="951" cy="-18" rx="27" ry="18"/>
<text text-anchor="middle" x="951" y="-14.3" font-family="Times New Roman,serif" font-size="14.00">11</text>
</g>
<!-- 11&#45;&gt;10 -->
<g id="edge11" class="edge"><title>11&#45;&gt;10</title>
<path fill="none" stroke="black" d="M923.971,-18C903.373,-18 874.364,-18 851.455,-18"/>
<polygon fill="black" stroke="black" points="851.41,-14.5001 841.41,-18 851.41,-21.5001 851.41,-14.5001"/>
<text text-anchor="middle" x="882.5" y="-21.8" font-family="Times New Roman,serif" font-size="14.00">hash#11</text>
</g>
</g>
</svg>
