<?xml version="1.0" ?><!DOCTYPE svg  PUBLIC '-//W3C//DTD SVG 1.1//EN'  'http://www.w3.org/Graphics/SVG/1.1/DTD/svg11.dtd'><svg height="512px" id="Layer_1" style="enable-background:new 0 0 512 512;" version="1.1" viewBox="0 0 512 512" width="512px" xml:space="preserve" xmlns="http://www.w3.org/2000/svg" xmlns:xlink="http://www.w3.org/1999/xlink"><g id="Layer_17"><g><circle cx="256" cy="256.93" r="256" style="fill:#CABA94;"/><path d="M256,512.93c141.387,0,256-114.613,256-256c0-68.157-26.686-130.043-70.116-175.917L77.742,440.582    C123.839,485.332,186.68,512.93,256,512.93z" style="fill:#C2B59B;"/><g><path d="M271.553,272.443c-9.832,8.125-25.81,8.234-35.478,0.248l-6.046-5.037L99.92,375.289     c8.142,6.857,18.546,11.168,30.055,11.168h252.056c12.609,0,23.986-5.037,32.428-13.123l-132.445-109.53L271.553,272.443z" style="fill:#FFFFFF;"/><path d="M271.553,254.834l140.551-116.25c-8.16-6.884-18.564-11.187-30.072-11.187H129.975     c-12.594,0-23.987,5.047-32.406,13.117l138.507,114.557C245.743,263.067,261.721,262.957,271.553,254.834z" style="fill:#FFFFFF;"/><path d="M92.254,146.691c-5.697,7.748-9.153,17.232-9.153,27.591v165.292     c0,10.854,3.842,20.708,10.038,28.658l113.712-111.516L92.254,146.691z" style="fill:#FFFFFF;"/><path d="M426.789,161.084c-1.249-2.986-3.033-5.817-5.387-8.42l-5.586-6.177L304.016,256.717     l115.641,110.576c5.755-7.765,9.246-17.306,9.246-27.72V174.281C428.902,169.659,428.021,165.293,426.789,161.084z" style="fill:#FFFFFF;"/></g><path d="M271.553,272.443c-7.59,6.272-18.833,7.746-28.019,4.428l-110.98,109.587h249.478    c12.609,0,23.986-5.037,32.428-13.123l-132.445-109.53L271.553,272.443z M426.789,161.084c-1.249-2.986-3.033-5.817-5.387-8.42    l-5.586-6.177L304.016,256.717l115.641,110.576c5.755-7.765,9.246-17.306,9.246-27.72V174.281    C428.902,169.659,428.021,165.293,426.789,161.084z M412.104,138.584c-5.361-4.523-11.697-7.921-18.674-9.728L260.415,260.202    c4.076-0.942,7.935-2.723,11.138-5.368L412.104,138.584z" style="fill:#F1F2F2;"/></g></g><g id="Layer_1_1_"/></svg>