<?xml version="1.0" ?><!DOCTYPE svg  PUBLIC '-//W3C//DTD SVG 1.1//EN'  'http://www.w3.org/Graphics/SVG/1.1/DTD/svg11.dtd'><svg height="512px" id="Layer_1" style="enable-background:new 0 0 512 512;" version="1.1" viewBox="0 0 512 512" width="512px" xml:space="preserve" xmlns="http://www.w3.org/2000/svg" xmlns:xlink="http://www.w3.org/1999/xlink"><g id="social_x5F_7"><g><path d="M256-1C114.62-1,0,113.613,0,255s114.62,256,256,256c141.387,0,256-114.613,256-256    S397.387-1,256-1z" style="fill:#88BEE1;"/><path d="M256,511c141.387,0,256-114.613,256-256c0-68.157-26.688-130.045-70.119-175.917L77.743,438.651    C123.839,483.402,186.681,511,256,511z" style="fill:#81AFD2;"/><g><rect height="196.949" style="fill:#FFFFFF;" width="85.294" x="105.063" y="204.931"/><path d="M147.715,178.097c21.415,0,38.789-15.672,38.789-34.987c0-19.337-17.374-34.989-38.789-34.989     c-21.429,0-38.79,15.652-38.79,34.989C108.925,162.425,126.286,178.097,147.715,178.097z" style="fill:#FFFFFF;"/><path d="M406.854,293.063c-0.375-10.338,1.962-44.49-22.773-68.916     c-12.969-12.813-19.519-18.845-51.092-18.845c-25.367,0-49.136,16.414-58.562,29.468v-28.851h-64.78v195.017h64.78     c0,0,0-89.672,0-111.17c0-16.012,8.315-33,30.943-33c22.654,0,36.773,18.246,36.773,39.182v104.988h64.796V293.063H406.854z" style="fill:#FFFFFF;"/></g><path d="M406.854,293.063c-0.375-10.338,1.962-44.49-22.773-68.916    c-12.969-12.813-19.519-18.845-51.092-18.845c-8.09,0-16.013,1.68-23.363,4.377l-99.979,98.727v92.53h64.78c0,0,0-89.672,0-111.17    c0-16.012,8.315-33,30.943-33c22.654,0,36.773,18.246,36.773,39.182v104.988h64.796V293.063H406.854z M190.356,401.88v-74.428    l-75.374,74.428H190.356z" style="fill:#F1F2F2;"/></g></g><g id="Layer_1_1_"/></svg>