<?xml version="1.0" encoding="UTF-8" standalone="no"?>
<!DOCTYPE svg PUBLIC "-//W3C//DTD SVG 1.1//EN"
 "http://www.w3.org/Graphics/SVG/1.1/DTD/svg11.dtd">
<!-- Generated by graphviz version 2.38.0 (20140413.2041)
 -->
<!-- Title: %3 Pages: 1 -->
<svg width="704pt" height="44pt"
 viewBox="0.00 0.00 704.00 44.00" xmlns="http://www.w3.org/2000/svg" xmlns:xlink="http://www.w3.org/1999/xlink">
<g id="graph0" class="graph" transform="scale(1 1) rotate(0) translate(4 40)">
<title>%3</title>
<polygon fill="white" stroke="none" points="-4,4 -4,-40 700,-40 700,4 -4,4"/>
<!-- 1 -->
<g id="node1" class="node"><title>1</title>
<ellipse fill="none" stroke="black" cx="154" cy="-18" rx="27" ry="18"/>
<text text-anchor="middle" x="154" y="-14.3" font-family="Times New Roman,serif" font-size="14.00">1</text>
</g>
<!-- 0 -->
<g id="node2" class="node"><title>0</title>
<ellipse fill="none" stroke="black" cx="27" cy="-18" rx="27" ry="18"/>
<text text-anchor="middle" x="27" y="-14.3" font-family="Times New Roman,serif" font-size="14.00">0</text>
</g>
<!-- 1&#45;&gt;0 -->
<g id="edge1" class="edge"><title>1&#45;&gt;0</title>
<path fill="none" stroke="black" d="M126.796,-18C108.629,-18 84.2006,-18 64.1805,-18"/>
<polygon fill="black" stroke="black" points="64.1696,-14.5001 54.1696,-18 64.1696,-21.5001 64.1696,-14.5001"/>
<text text-anchor="middle" x="90.5" y="-21.8" font-family="Times New Roman,serif" font-size="14.00">f42c...</text>
</g>
<!-- 2 -->
<g id="node3" class="node"><title>2</title>
<ellipse fill="none" stroke="black" cx="283" cy="-18" rx="27" ry="18"/>
<text text-anchor="middle" x="283" y="-14.3" font-family="Times New Roman,serif" font-size="14.00">2</text>
</g>
<!-- 2&#45;&gt;1 -->
<g id="edge2" class="edge"><title>2&#45;&gt;1</title>
<path fill="none" stroke="black" d="M255.993,-18C237.369,-18 212.041,-18 191.409,-18"/>
<polygon fill="black" stroke="black" points="191.409,-14.5001 181.408,-18 191.408,-21.5001 191.409,-14.5001"/>
<text text-anchor="middle" x="218.5" y="-21.8" font-family="Times New Roman,serif" font-size="14.00">da30...</text>
</g>
<!-- 3 -->
<g id="node4" class="node"><title>3</title>
<ellipse fill="none" stroke="black" cx="413" cy="-18" rx="27" ry="18"/>
<text text-anchor="middle" x="413" y="-14.3" font-family="Times New Roman,serif" font-size="14.00">3</text>
</g>
<!-- 3&#45;&gt;2 -->
<g id="edge3" class="edge"><title>3&#45;&gt;2</title>
<path fill="none" stroke="black" d="M385.788,-18C366.892,-18 341.149,-18 320.28,-18"/>
<polygon fill="black" stroke="black" points="320.177,-14.5001 310.177,-18 320.176,-21.5001 320.177,-14.5001"/>
<text text-anchor="middle" x="348" y="-21.8" font-family="Times New Roman,serif" font-size="14.00">128d...</text>
</g>
<!-- 4 -->
<g id="node5" class="node"><title>4</title>
<ellipse fill="none" stroke="black" cx="542" cy="-18" rx="27" ry="18"/>
<text text-anchor="middle" x="542" y="-14.3" font-family="Times New Roman,serif" font-size="14.00">4</text>
</g>
<!-- 4&#45;&gt;3 -->
<g id="edge4" class="edge"><title>4&#45;&gt;3</title>
<path fill="none" stroke="black" d="M514.993,-18C496.369,-18 471.041,-18 450.409,-18"/>
<polygon fill="black" stroke="black" points="450.409,-14.5001 440.408,-18 450.408,-21.5001 450.409,-14.5001"/>
<text text-anchor="middle" x="477.5" y="-21.8" font-family="Times New Roman,serif" font-size="14.00">8370...</text>
</g>
<!-- 5 -->
<g id="node6" class="node"><title>5</title>
<ellipse fill="none" stroke="black" cx="669" cy="-18" rx="27" ry="18"/>
<text text-anchor="middle" x="669" y="-14.3" font-family="Times New Roman,serif" font-size="14.00">5</text>
</g>
<!-- 5&#45;&gt;4 -->
<g id="edge5" class="edge"><title>5&#45;&gt;4</title>
<path fill="none" stroke="black" d="M641.796,-18C623.629,-18 599.201,-18 579.18,-18"/>
<polygon fill="black" stroke="black" points="579.17,-14.5001 569.17,-18 579.17,-21.5001 579.17,-14.5001"/>
<text text-anchor="middle" x="605.5" y="-21.8" font-family="Times New Roman,serif" font-size="14.00">e3e3...</text>
</g>
</g>
</svg>
